<svg width="23" height="23" viewBox="0 0 23 23" fill="none" xmlns="http://www.w3.org/2000/svg">
<g clip-path="url(#clip0_203_41)">
<path d="M18.5594 1.77113H17.7015V0.903042C17.7015 0.407056 17.2995 0.00500488 16.8035 0.00500488C16.3075 0.00500488 15.9055 0.407056 15.9055 0.903042V1.77113H7.0945V0.903042C7.0945 0.407056 6.69245 0.00500488 6.19646 0.00500488C5.70047 0.00500488 5.29842 0.407056 5.29842 0.903042V1.77113H4.44057C1.99203 1.77113 0 3.76316 0 6.21166V18.5542C0 21.0027 1.99203 22.9948 4.44057 22.9948H18.5595C21.008 22.9948 23 21.0027 23 18.5542V6.21166C23 3.76316 21.008 1.77113 18.5594 1.77113ZM4.44057 3.56721H5.29842V5.31838C5.29842 5.81436 5.70047 6.21642 6.19646 6.21642C6.69245 6.21642 7.0945 5.81436 7.0945 5.31838V3.56721H15.9055V5.31838C15.9055 5.81436 16.3076 6.21642 16.8035 6.21642C17.2995 6.21642 17.7016 5.81436 17.7016 5.31838V3.56721H18.5595C20.0176 3.56721 21.2039 4.75351 21.2039 6.21166V7.06955H1.79608V6.21166C1.79608 4.75351 2.98238 3.56721 4.44057 3.56721ZM18.5594 21.1987H4.44057C2.98238 21.1987 1.79608 20.0124 1.79608 18.5542V8.86563H21.2039V18.5542C21.2039 20.0124 20.0176 21.1987 18.5594 21.1987ZM7.97758 12.3979C7.97758 12.8939 7.57553 13.296 7.07954 13.296H5.31342C4.81743 13.296 4.41538 12.8939 4.41538 12.3979C4.41538 11.9019 4.81743 11.4999 5.31342 11.4999H7.07954C7.57549 11.4999 7.97758 11.9019 7.97758 12.3979ZM18.5847 12.3979C18.5847 12.8939 18.1826 13.296 17.6866 13.296H15.9205C15.4245 13.296 15.0225 12.8939 15.0225 12.3979C15.0225 11.9019 15.4245 11.4999 15.9205 11.4999H17.6866C18.1826 11.4999 18.5847 11.9019 18.5847 12.3979ZM13.276 12.3979C13.276 12.8939 12.874 13.296 12.378 13.296H10.6118C10.1159 13.296 9.7138 12.8939 9.7138 12.3979C9.7138 11.9019 10.1159 11.4999 10.6118 11.4999H12.378C12.8739 11.4999 13.276 11.9019 13.276 12.3979ZM7.97758 17.6963C7.97758 18.1923 7.57553 18.5944 7.07954 18.5944H5.31342C4.81743 18.5944 4.41538 18.1923 4.41538 17.6963C4.41538 17.2004 4.81743 16.7983 5.31342 16.7983H7.07954C7.57549 16.7983 7.97758 17.2004 7.97758 17.6963ZM18.5847 17.6963C18.5847 18.1923 18.1826 18.5944 17.6866 18.5944H15.9205C15.4245 18.5944 15.0225 18.1923 15.0225 17.6963C15.0225 17.2004 15.4245 16.7983 15.9205 16.7983H17.6866C18.1826 16.7983 18.5847 17.2004 18.5847 17.6963ZM13.276 17.6963C13.276 18.1923 12.874 18.5944 12.378 18.5944H10.6118C10.1159 18.5944 9.7138 18.1923 9.7138 17.6963C9.7138 17.2004 10.1159 16.7983 10.6118 16.7983H12.378C12.8739 16.7983 13.276 17.2004 13.276 17.6963Z" fill="#CC40CC"/>
</g>
<defs>
<clipPath id="clip0_203_41">
<rect width="23" height="23" fill="white"/>
</clipPath>
</defs>
</svg>
