<svg width="21" height="21" viewBox="0 0 21 21" fill="none" xmlns="http://www.w3.org/2000/svg">
<g clip-path="url(#clip0_300_152)">
<path d="M10.4999 0C4.71025 0 0 4.71015 0 10.4997C0 16.2896 4.71025 21 10.4999 21C16.2894 21 20.9996 16.2896 20.9996 10.4997C20.9996 4.71015 16.2894 0 10.4999 0ZM10.4999 19.4948C5.5402 19.4948 1.50516 15.4596 1.50516 10.4997C1.50516 5.54009 5.5402 1.50516 10.4999 1.50516C15.4595 1.50516 19.4944 5.54009 19.4944 10.4997C19.4944 15.4596 15.4595 19.4948 10.4999 19.4948Z" fill="#707070"/>
<path d="M15.8985 10.324H10.9641V4.93031C10.9641 4.51469 10.6273 4.17773 10.2116 4.17773C9.79594 4.17773 9.45898 4.51469 9.45898 4.93031V11.0766C9.45898 11.4922 9.79594 11.8292 10.2116 11.8292H15.8985C16.3142 11.8292 16.651 11.4922 16.651 11.0766C16.651 10.661 16.3141 10.324 15.8985 10.324Z" fill="#707070"/>
</g>
<defs>
<clipPath id="clip0_300_152">
<rect width="21" height="21" fill="white"/>
</clipPath>
</defs>
</svg>
