<svg width="42" height="42" viewBox="0 0 42 42" fill="none" xmlns="http://www.w3.org/2000/svg">
<g clip-path="url(#clip0_211_438)">
<path d="M24.51 25.7329C23.4651 26.4295 22.2514 26.7977 21 26.7977C19.7487 26.7977 18.535 26.4295 17.49 25.7329L0.279645 14.2589C0.18416 14.1952 0.0911367 14.1289 0 14.0606V32.8619C0 35.0176 1.74932 36.7283 3.86638 36.7283H38.1335C40.2892 36.7283 41.9999 34.979 41.9999 32.8619V14.0605C41.9086 14.129 41.8154 14.1955 41.7197 14.2592L24.51 25.7329Z" fill="#B2832E"/>
<path d="M1.64473 12.2112L18.8551 23.6852C19.5066 24.1196 20.2533 24.3367 20.9999 24.3367C21.7466 24.3367 22.4934 24.1195 23.1449 23.6852L40.3553 12.2112C41.3852 11.525 42 10.3765 42 9.13704C42 7.00579 40.2661 5.27197 38.1349 5.27197H3.86507C1.73389 5.27205 0 7.00587 0 9.13909C0 10.3765 0.614906 11.525 1.64473 12.2112Z" fill="#B2832E"/>
</g>
<defs>
<clipPath id="clip0_211_438">
<rect width="42" height="42" fill="white"/>
</clipPath>
</defs>
</svg>
