<svg width="87" height="85" viewBox="0 0 87 85" fill="none" xmlns="http://www.w3.org/2000/svg">
<path d="M67.5938 10.394C67.5938 9.47714 66.8329 8.73389 65.8941 8.73389H65.8844C64.9457 8.73389 64.1895 9.47714 64.1895 10.394C64.1895 11.3109 64.9552 12.0542 65.8939 12.0542C66.8327 12.0542 67.5938 11.3109 67.5938 10.394Z" fill="#CC40CC"/>
<path d="M76.7618 10.394C76.7618 9.47714 76.0008 8.73389 75.0621 8.73389H75.0524C74.1136 8.73389 73.3574 9.47714 73.3574 10.394C73.3574 11.3109 74.1231 12.0542 75.0619 12.0542C76.0007 12.0542 76.7618 11.3109 76.7618 10.394Z" fill="#CC40CC"/>
<path d="M58.4298 10.394C58.4298 9.47714 57.6688 8.73389 56.73 8.73389H56.7204C55.7816 8.73389 55.0254 9.47714 55.0254 10.394C55.0254 11.3109 55.7911 12.0542 56.7299 12.0542C57.6686 12.0542 58.4298 11.3109 58.4298 10.394Z" fill="#CC40CC"/>
<path d="M10.2812 10.394C10.2812 11.3109 11.0422 12.0542 11.981 12.0542H37.4965C38.4353 12.0542 39.1962 11.3109 39.1962 10.394C39.1962 9.47714 38.4353 8.73389 37.4965 8.73389H11.981C11.0424 8.73389 10.2812 9.47714 10.2812 10.394Z" fill="#CC40CC"/>
<path d="M81.5471 0H28.4058C27.4671 0 26.7061 0.743252 26.7061 1.66016C26.7061 2.57706 27.4671 3.32031 28.4058 3.32031H81.5471C82.6795 3.32031 83.6006 4.21796 83.6006 5.3213V17.4682H3.44339V5.3213C3.44339 4.21796 4.36243 3.32031 5.49206 3.32031H13.1428C14.0816 3.32031 14.8426 2.57706 14.8426 1.66016C14.8426 0.743252 14.0816 0 13.1428 0H5.49206C2.48797 0 0.0439453 2.38714 0.0439453 5.3213V79.6739C0.0439453 82.6107 2.48797 85 5.49206 85H81.5471C84.5538 85 87 82.6107 87 79.6739V5.3213C87 2.38714 84.5538 0 81.5471 0ZM81.5471 81.6797H5.49206C4.36243 81.6797 3.44339 80.7799 3.44339 79.6739V20.7885H83.6006V79.6739C83.6006 80.7799 82.6793 81.6797 81.5471 81.6797Z" fill="#CC40CC"/>
<path d="M15.9271 63.5195C12.0225 63.5195 8.8457 66.6222 8.8457 70.4361C8.8457 74.2473 12.0223 77.348 15.9271 77.348C19.8291 77.348 23.0035 74.2473 23.0035 70.4361C23.0035 66.6224 19.8291 63.5195 15.9271 63.5195ZM15.9271 74.0278C13.8969 74.0278 12.2451 72.4166 12.2451 70.4362C12.2451 68.4533 13.8968 66.84 15.9271 66.84C17.9545 66.84 19.6041 68.4533 19.6041 70.4362C19.6041 72.4166 17.9547 74.0278 15.9271 74.0278Z" fill="#CC40CC"/>
<path d="M34.3225 63.5195C30.4205 63.5195 27.2461 66.6222 27.2461 70.4361C27.2461 74.2473 30.4207 77.348 34.3225 77.348C38.2244 77.348 41.399 74.2473 41.399 70.4361C41.399 66.6224 38.2246 63.5195 34.3225 63.5195ZM34.3225 74.0278C32.2949 74.0278 30.6455 72.4166 30.6455 70.4362C30.6455 68.4533 32.2951 66.84 34.3225 66.84C36.35 66.84 37.9995 68.4533 37.9995 70.4362C37.9995 72.4166 36.3501 74.0278 34.3225 74.0278Z" fill="#CC40CC"/>
<path d="M52.7171 63.5195C48.815 63.5195 45.6406 66.6222 45.6406 70.4361C45.6406 74.2473 48.8152 77.348 52.7171 77.348C56.6217 77.348 59.7985 74.2473 59.7985 70.4361C59.7983 66.6224 56.6217 63.5195 52.7171 63.5195ZM52.7171 74.0278C50.6895 74.0278 49.0401 72.4166 49.0401 70.4362C49.0401 68.4533 50.6896 66.84 52.7171 66.84C54.7472 66.84 56.399 68.4533 56.399 70.4362C56.3988 72.4166 54.7472 74.0278 52.7171 74.0278Z" fill="#CC40CC"/>
<path d="M71.1165 63.5195C67.2119 63.5195 64.0352 66.6222 64.0352 70.4361C64.0352 74.2473 67.2118 77.348 71.1165 77.348C75.0186 77.348 78.193 74.2473 78.193 70.4361C78.193 66.6224 75.0184 63.5195 71.1165 63.5195ZM71.1165 74.0278C69.0864 74.0278 67.4346 72.4166 67.4346 70.4362C67.4346 68.4533 69.0862 66.84 71.1165 66.84C73.1441 66.84 74.7935 68.4533 74.7935 70.4362C74.7935 72.4166 73.144 74.0278 71.1165 74.0278Z" fill="#CC40CC"/>
<path d="M8.85165 55.4282C8.91284 56.2865 9.66378 56.9719 10.5478 56.9719H48.5898C49.5173 56.9719 50.2919 56.216 50.2919 55.3117V27.2129C50.2919 26.296 49.5309 25.5527 48.5922 25.5527H10.5454C9.60667 25.5527 8.8457 26.296 8.8457 27.2129V55.3115C8.84774 55.3505 8.84961 55.3894 8.85165 55.4282ZM37.0291 53.6515L33.8624 48.7767L38.0986 42.2591L45.5005 53.6515H37.0291ZM33.0032 53.6515H13.6374L23.3221 38.7488L33.0032 53.6515ZM46.8924 28.873V49.5973L39.534 38.2717C39.2223 37.7917 38.6807 37.501 38.0991 37.501C37.5173 37.501 36.9759 37.7917 36.664 38.2715L31.8497 45.6785L24.7576 34.7613C24.4459 34.2813 23.9044 33.9906 23.3226 33.9905C23.3226 33.9905 23.3226 33.9905 23.3224 33.9905C22.7406 33.9905 22.1992 34.2812 21.8873 34.761L12.245 49.5983V28.873H46.8924Z" fill="#CC40CC"/>
<path d="M57.4673 28.873H76.4257C77.3644 28.873 78.1254 28.1298 78.1254 27.2129C78.1254 26.296 77.3644 25.5527 76.4257 25.5527H57.4673C56.5285 25.5527 55.7676 26.296 55.7676 27.2129C55.7676 28.1298 56.5285 28.873 57.4673 28.873Z" fill="#CC40CC"/>
<path d="M57.4673 38.0732H76.4257C77.3644 38.0732 78.1254 37.33 78.1254 36.4131C78.1254 35.4962 77.3644 34.7529 76.4257 34.7529H57.4673C56.5285 34.7529 55.7676 35.4962 55.7676 36.4131C55.7676 37.33 56.5285 38.0732 57.4673 38.0732Z" fill="#CC40CC"/>
<path d="M57.4673 47.2686H76.4257C77.3644 47.2686 78.1254 46.5253 78.1254 45.6084C78.1254 44.6915 77.3644 43.9482 76.4257 43.9482H57.4673C56.5285 43.9482 55.7676 44.6915 55.7676 45.6084C55.7676 46.5253 56.5285 47.2686 57.4673 47.2686Z" fill="#CC40CC"/>
<path d="M57.4673 56.4634H76.4257C77.3644 56.4634 78.1254 55.7201 78.1254 54.8032C78.1254 53.8863 77.3644 53.1431 76.4257 53.1431H57.4673C56.5285 53.1431 55.7676 53.8863 55.7676 54.8032C55.7676 55.7201 56.5285 56.4634 57.4673 56.4634Z" fill="#CC40CC"/>
<path d="M20.7747 3.32031H20.7844C21.7232 3.32031 22.4794 2.57706 22.4794 1.66016C22.4794 0.743252 21.7137 0 20.7749 0C19.8362 0 19.0752 0.743252 19.0752 1.66016C19.0752 2.57706 19.8362 3.32031 20.7747 3.32031Z" fill="#CC40CC"/>
</svg>
