<svg width="48" height="48" viewBox="0 0 48 48" fill="none" xmlns="http://www.w3.org/2000/svg">
<g clip-path="url(#clip0_211_497)">
<path d="M34.7532 0H13.2459C5.94212 0 0 5.9424 0 13.2462V34.7535C0 42.0576 5.94212 47.9997 13.2459 47.9997H34.7532C42.0576 47.9997 47.9997 42.0573 47.9997 34.7535V13.2462C48 5.9424 42.0576 0 34.7532 0ZM43.7412 34.7535C43.7412 39.7093 39.7093 43.7409 34.7535 43.7409H13.2459C8.2904 43.7412 4.25877 39.7093 4.25877 34.7535V13.2462C4.25877 8.29068 8.2904 4.25877 13.2459 4.25877H34.7532C39.709 4.25877 43.7409 8.29068 43.7409 13.2462V34.7535H43.7412Z" fill="white"/>
<path d="M24.0001 11.6323C17.1802 11.6323 11.6318 17.1806 11.6318 24.0006C11.6318 30.8203 17.1802 36.3684 24.0001 36.3684C30.8201 36.3684 36.3685 30.8203 36.3685 24.0006C36.3685 17.1806 30.8201 11.6323 24.0001 11.6323ZM24.0001 32.1093C19.5287 32.1093 15.8906 28.4718 15.8906 24.0004C15.8906 19.5286 19.5284 15.8908 24.0001 15.8908C28.4719 15.8908 32.1097 19.5286 32.1097 24.0004C32.1097 28.4718 28.4716 32.1093 24.0001 32.1093Z" fill="white"/>
<path d="M36.8868 8.021C36.0662 8.021 35.2602 8.35318 34.6807 8.93521C34.0984 9.5144 33.7637 10.3207 33.7637 11.1441C33.7637 11.9649 34.0987 12.7709 34.6807 13.353C35.2599 13.9322 36.0662 14.2672 36.8868 14.2672C37.7101 14.2672 38.5136 13.9322 39.0957 13.353C39.6777 12.7709 40.0099 11.9646 40.0099 11.1441C40.0099 10.3207 39.6777 9.5144 39.0957 8.93521C38.5165 8.35318 37.7101 8.021 36.8868 8.021Z" fill="white"/>
</g>
<defs>
<clipPath id="clip0_211_497">
<rect width="48" height="48" fill="white"/>
</clipPath>
</defs>
</svg>
