<svg width="23" height="23" viewBox="0 0 23 23" fill="none" xmlns="http://www.w3.org/2000/svg">
<g clip-path="url(#clip0_300_98)">
<path d="M12.0607 22.6999C11.9357 22.8874 11.7253 23 11.5 23C11.2747 23 11.0643 22.8874 10.9393 22.6999C9.34465 20.308 6.99582 17.3539 5.35905 14.3494C4.05029 11.9472 3.41406 9.89836 3.41406 8.08594C3.41406 3.62735 7.04141 0 11.5 0C15.9586 0 19.5859 3.62735 19.5859 8.08594C19.5859 9.89836 18.9497 11.9472 17.641 14.3494C16.0054 17.3516 13.6521 20.3129 12.0607 22.6999ZM11.5 1.34766C7.78451 1.34766 4.76172 4.37045 4.76172 8.08594C4.76172 9.66737 5.34422 11.5053 6.54247 13.7047C7.95333 16.2944 9.96664 18.9214 11.5 21.1299C13.0331 18.9217 15.0466 16.2946 16.4575 13.7047C17.6558 11.5053 18.2383 9.66737 18.2383 8.08594C18.2383 4.37045 15.2155 1.34766 11.5 1.34766Z" fill="#707070"/>
<path d="M11.5 12.1289C9.27071 12.1289 7.45703 10.3152 7.45703 8.08594C7.45703 5.85664 9.27071 4.04297 11.5 4.04297C13.7293 4.04297 15.543 5.85664 15.543 8.08594C15.543 10.3152 13.7293 12.1289 11.5 12.1289ZM11.5 5.39062C10.0138 5.39062 8.80469 6.59974 8.80469 8.08594C8.80469 9.57213 10.0138 10.7812 11.5 10.7812C12.9862 10.7812 14.1953 9.57213 14.1953 8.08594C14.1953 6.59974 12.9862 5.39062 11.5 5.39062Z" fill="#707070"/>
</g>
<defs>
<clipPath id="clip0_300_98">
<rect width="23" height="23" fill="white" transform="matrix(-1 0 0 1 23 0)"/>
</clipPath>
</defs>
</svg>
