<svg width="33" height="33" viewBox="0 0 33 33" fill="none" xmlns="http://www.w3.org/2000/svg">
<path d="M16.5002 0C9.91017 0 4.54883 5.36134 4.54883 11.9513C4.54883 20.1296 15.2441 32.1359 15.6995 32.643C16.1272 33.1194 16.8739 33.1185 17.3009 32.643C17.7562 32.1359 28.4515 20.1296 28.4515 11.9513C28.4514 5.36134 23.0901 0 16.5002 0ZM16.5002 17.9643C13.1846 17.9643 10.4872 15.2669 10.4872 11.9513C10.4872 8.63569 13.1846 5.93832 16.5002 5.93832C19.8157 5.93832 22.5131 8.63575 22.5131 11.9513C22.5131 15.2669 19.8157 17.9643 16.5002 17.9643Z" fill="#CC40CC"/>
</svg>
