<svg width="34" height="34" viewBox="0 0 34 34" fill="none" xmlns="http://www.w3.org/2000/svg">
<path d="M17 0C10.2103 0 4.68652 5.5238 4.68652 12.3134C4.68652 20.7396 15.7059 33.1097 16.1751 33.6322C16.6157 34.123 17.3851 34.1221 17.825 33.6322C18.2942 33.1097 29.3135 20.7396 29.3135 12.3134C29.3134 5.5238 23.7897 0 17 0ZM17 18.5087C13.584 18.5087 10.8049 15.7295 10.8049 12.3134C10.8049 8.89737 13.584 6.11827 17 6.11827C20.416 6.11827 23.1951 8.89744 23.1951 12.3135C23.1951 15.7296 20.416 18.5087 17 18.5087Z" fill="#B2832E"/>
</svg>
